<?xml version="1.0" encoding="utf-8"?>
<!-- Generator: Adobe Illustrator 24.2.0, SVG Export Plug-In . SVG Version: 6.00 Build 0)  -->
<svg version="1.1" id="Layer_1" xmlns="http://www.w3.org/2000/svg" xmlns:xlink="http://www.w3.org/1999/xlink" x="0px" y="0px"
	 viewBox="0 0 23.9 23.9" enable-background="new 0 0 23.9 23.9" xml:space="preserve">
<g opacity="0.4">
	<path fill="#040D21" d="M6,7c0.6,0,1-0.4,1-1S6.5,5,6,5S5,5.4,5,6S5.4,7,6,7z"/>
	<path fill="#040D21" d="M18,7c0.6,0,1-0.4,1-1s-0.4-1-1-1s-1,0.4-1,1S17.4,7,18,7z"/>
	<path fill="#040D21" d="M6,19c0.6,0,1-0.4,1-1s-0.4-1-1-1s-1,0.4-1,1S5.4,19,6,19z"/>
	<path fill="#040D21" d="M18,19c0.6,0,1-0.4,1-1s-0.4-1-1-1s-1,0.4-1,1S17.4,19,18,19z"/>
</g>
</svg>
