<svg xmlns="http://www.w3.org/2000/svg" fill="none" class="Base__Svg-sc-ta5t7f-0 icon icon-closer" viewBox="0 0 16 16"><mask id="b" x="2" y="0" maskUnits="userSpaceOnUse" style="mask-type:alpha"><path fill="url(#a)" d="M13 0H5C3.34 0 2 1.34 2 3v10c0 1.66 1.34 3 3 3h8c.55 0 1-.45 1-1V1c0-.55-.45-1-1-1zm0 15H5c-1.1 0-2-.9-2-2s.9-2 2-2h8v4z"/></mask><g mask="url(#b)"><path fill="url(#c)" d="M16 0H0v16h16V0z"/></g><defs><linearGradient id="a" x1="12.654" x2="-11.265" y1="8" y2="8" gradientUnits="userSpaceOnUse"><stop/><stop offset="1" stop-opacity="0"/></linearGradient><linearGradient id="c" x1="32" x2="0" y1="0" y2="32" gradientUnits="userSpaceOnUse"><stop stop-color="var(--icon-gradient-stop-1, #12161E)"/><stop offset="1" stop-color="var(--icon-gradient-stop-2, #12161E)"/></linearGradient></defs></svg>